<?xml version="1.0" encoding="UTF-8" standalone="no"?>
<!-- Created with Inkscape (http://www.inkscape.org/) -->

<svg
   xmlns:dc="http://purl.org/dc/elements/1.1/"
   xmlns:cc="http://creativecommons.org/ns#"
   xmlns:rdf="http://www.w3.org/1999/02/22-rdf-syntax-ns#"
   xmlns:svg="http://www.w3.org/2000/svg"
   xmlns="http://www.w3.org/2000/svg"
   xmlns:sodipodi="http://sodipodi.sourceforge.net/DTD/sodipodi-0.dtd"
   xmlns:inkscape="http://www.inkscape.org/namespaces/inkscape"
   width="31.999998"
   height="31.999998"
   viewBox="0 0 8.4666662 8.466666"
   version="1.1"
   id="svg5082"
   inkscape:version="0.92.4 (5da689c313, 2019-01-14)"
   sodipodi:docname="calendar1.svg"
   inkscape:export-filename="D:\DNW\Graphic\default.png"
   inkscape:export-xdpi="96"
   inkscape:export-ydpi="96">
  <defs
     id="defs5076" />
  <sodipodi:namedview
     id="base"
     pagecolor="#ffffff"
     bordercolor="#666666"
     borderopacity="1.0"
     inkscape:pageopacity="0.0"
     inkscape:pageshadow="2"
     inkscape:zoom="9.8111072"
     inkscape:cx="8.6348845"
     inkscape:cy="26.170244"
     inkscape:document-units="mm"
     inkscape:current-layer="layer1"
     showgrid="false"
     inkscape:window-width="1858"
     inkscape:window-height="1057"
     inkscape:window-x="54"
     inkscape:window-y="-8"
     inkscape:window-maximized="1"
     inkscape:pagecheckerboard="true"
     borderlayer="true"
     units="px"
     inkscape:object-paths="false"
     inkscape:snap-smooth-nodes="false"
     inkscape:snap-global="true"
     inkscape:snap-midpoints="false"
     inkscape:snap-others="false">
    <inkscape:grid
       type="xygrid"
       id="grid823" />
  </sodipodi:namedview>
  <metadata
     id="metadata5079">
    <rdf:RDF>
      <cc:Work
         rdf:about="">
        <dc:format>image/svg+xml</dc:format>
        <dc:type
           rdf:resource="http://purl.org/dc/dcmitype/StillImage" />
        <dc:title></dc:title>
      </cc:Work>
    </rdf:RDF>
  </metadata>
  <g
     inkscape:label="Layer 1"
     inkscape:groupmode="layer"
     id="layer1"
     transform="translate(-97.530006,-212.01639)">
    <path
       style="color:#000000;font-style:normal;font-variant:normal;font-weight:normal;font-stretch:normal;font-size:medium;line-height:normal;font-family:sans-serif;font-variant-ligatures:normal;font-variant-position:normal;font-variant-caps:normal;font-variant-numeric:normal;font-variant-alternates:normal;font-feature-settings:normal;text-indent:0;text-align:start;text-decoration:none;text-decoration-line:none;text-decoration-style:solid;text-decoration-color:#000000;letter-spacing:normal;word-spacing:normal;text-transform:none;writing-mode:lr-tb;direction:ltr;text-orientation:mixed;dominant-baseline:auto;baseline-shift:baseline;text-anchor:start;white-space:normal;shape-padding:0;clip-rule:nonzero;display:inline;overflow:visible;visibility:visible;opacity:1;isolation:auto;mix-blend-mode:normal;color-interpolation:sRGB;color-interpolation-filters:linearRGB;solid-color:#000000;solid-opacity:1;vector-effect:none;fill:#ffffff;fill-opacity:1;fill-rule:nonzero;stroke:none;stroke-width:1.99936998;stroke-linecap:round;stroke-linejoin:round;stroke-miterlimit:4;stroke-dasharray:none;stroke-dashoffset:0;stroke-opacity:1;paint-order:markers stroke fill;color-rendering:auto;image-rendering:auto;shape-rendering:auto;text-rendering:auto;enable-background:accumulate"
       d="M 3.9980469 -0.001953125 C 1.7995184 -0.001953125 -0.001953125 1.7994957 -0.001953125 3.9980469 L -0.001953125 5.6953125 A 1.0015858 1.0015858 0 0 0 -0.001953125 6.3085938 L -0.001953125 27.996094 C -0.001953125 30.194607 1.7995184 31.998047 3.9980469 31.998047 L 27.996094 31.998047 C 30.194607 31.998047 31.998047 30.194607 31.998047 27.996094 L 31.998047 6.0722656 A 1.000252 1.000252 0 0 0 31.998047 5.9335938 L 31.998047 3.9980469 C 31.998047 1.7994957 30.194607 -0.001953125 27.996094 -0.001953125 L 3.9980469 -0.001953125 z M 3.9980469 1.9980469 L 27.996094 1.9980469 C 29.121561 1.9980469 29.998047 2.8725792 29.998047 3.9980469 L 29.998047 5.0019531 L 1.9980469 5.0019531 L 1.9980469 3.9980469 C 1.9980469 2.8725792 2.8725829 1.9980469 3.9980469 1.9980469 z M 1.9980469 7.0019531 L 29.998047 7.0019531 L 29.998047 27.996094 C 29.998047 29.121561 29.121561 29.998047 27.996094 29.998047 L 3.9980469 29.998047 C 2.8725829 29.998047 1.9980469 29.121561 1.9980469 27.996094 L 1.9980469 7.0019531 z M 21 9.5 C 20.169 9.5 19.5 10.169 19.5 11 C 19.5 11.831 20.169 12.5 21 12.5 C 21.831 12.5 22.5 11.831 22.5 11 C 22.5 10.169 21.831 9.5 21 9.5 z M 26 9.5 C 25.169 9.5 24.5 10.169 24.5 11 C 24.5 11.831 25.169 12.5 26 12.5 C 26.831 12.5 27.5 11.831 27.5 11 C 27.5 10.169 26.831 9.5 26 9.5 z M 6 14.5 C 5.169 14.5 4.5 15.169 4.5 16 C 4.5 16.831 5.169 17.5 6 17.5 C 6.831 17.5 7.5 16.831 7.5 16 C 7.5 15.169 6.831 14.5 6 14.5 z M 11 14.5 C 10.169 14.5 9.5 15.169 9.5 16 C 9.5 16.831 10.169 17.5 11 17.5 C 11.831 17.5 12.5 16.831 12.5 16 C 12.5 15.169 11.831 14.5 11 14.5 z M 16 14.5 C 15.169 14.5 14.5 15.169 14.5 16 C 14.5 16.831 15.169 17.5 16 17.5 C 16.831 17.5 17.5 16.831 17.5 16 C 17.5 15.169 16.831 14.5 16 14.5 z M 21 14.5 C 20.169 14.5 19.5 15.169 19.5 16 C 19.5 16.831 20.169 17.5 21 17.5 C 21.831 17.5 22.5 16.831 22.5 16 C 22.5 15.169 21.831 14.5 21 14.5 z M 26 14.5 C 25.169 14.5 24.5 15.169 24.5 16 C 24.5 16.831 25.169 17.5 26 17.5 C 26.831 17.5 27.5 16.831 27.5 16 C 27.5 15.169 26.831 14.5 26 14.5 z M 6 19.5 C 5.169 19.5 4.5 20.169 4.5 21 C 4.5 21.831 5.169 22.5 6 22.5 C 6.831 22.5 7.5 21.831 7.5 21 C 7.5 20.169 6.831 19.5 6 19.5 z M 11 19.5 C 10.169 19.5 9.5 20.169 9.5 21 C 9.5 21.831 10.169 22.5 11 22.5 C 11.831 22.5 12.5 21.831 12.5 21 C 12.5 20.169 11.831 19.5 11 19.5 z M 16 19.5 C 15.169 19.5 14.5 20.169 14.5 21 C 14.5 21.831 15.169 22.5 16 22.5 C 16.831 22.5 17.5 21.831 17.5 21 C 17.5 20.169 16.831 19.5 16 19.5 z M 21 19.5 C 20.169 19.5 19.5 20.169 19.5 21 C 19.5 21.831 20.169 22.5 21 22.5 C 21.831 22.5 22.5 21.831 22.5 21 C 22.5 20.169 21.831 19.5 21 19.5 z M 26 19.5 C 25.169 19.5 24.5 20.169 24.5 21 C 24.5 21.831 25.169 22.5 26 22.5 C 26.831 22.5 27.5 21.831 27.5 21 C 27.5 20.169 26.831 19.5 26 19.5 z M 6 24.5 C 5.169 24.5 4.5 25.169 4.5 26 C 4.5 26.831 5.169 27.5 6 27.5 C 6.831 27.5 7.5 26.831 7.5 26 C 7.5 25.169 6.831 24.5 6 24.5 z M 11 24.5 C 10.169 24.5 9.5 25.169 9.5 26 C 9.5 26.831 10.169 27.5 11 27.5 C 11.831 27.5 12.5 26.831 12.5 26 C 12.5 25.169 11.831 24.5 11 24.5 z M 16 24.5 C 15.169 24.5 14.5 25.169 14.5 26 C 14.5 26.831 15.169 27.5 16 27.5 C 16.831 27.5 17.5 26.831 17.5 26 C 17.5 25.169 16.831 24.5 16 24.5 z M 21 24.5 C 20.169 24.5 19.5 25.169 19.5 26 C 19.5 26.831 20.169 27.5 21 27.5 C 21.831 27.5 22.5 26.831 22.5 26 C 22.5 25.169 21.831 24.5 21 24.5 z "
       transform="matrix(0.26458333,0,0,0.26458333,97.530006,212.01639)"
       id="rect879" />
  </g>
</svg>
