<?xml version="1.0" encoding="utf-8"?>
<!-- Generator: Adobe Illustrator 24.1.1, SVG Export Plug-In . SVG Version: 6.00 Build 0)  -->
<svg version="1.1" id="Layer_1" xmlns="http://www.w3.org/2000/svg" xmlns:xlink="http://www.w3.org/1999/xlink" x="0px" y="0px"
	 viewBox="0 0 20 20" style="enable-background:new 0 0 20 20;" xml:space="preserve">
<style type="text/css">
	.st0{fill:url(#SVGID_1_);}
	.st1{fill:url(#SVGID_2_);}
	.st2{fill:#FFFFFF;}
</style>
<radialGradient id="SVGID_1_" cx="4.5287" cy="19.8917" r="18.1998" gradientUnits="userSpaceOnUse">
	<stop  offset="0" style="stop-color:#FFDD55"/>
	<stop  offset="0.1" style="stop-color:#FFDD55"/>
	<stop  offset="0.5" style="stop-color:#FF543E"/>
	<stop  offset="1" style="stop-color:#C837AB"/>
</radialGradient>
<circle class="st0" cx="10" cy="10" r="10"/>
<radialGradient id="SVGID_2_" cx="4.2994" cy="0.3248" r="7.8024" gradientTransform="matrix(9.568326e-02 0.9954 -7.0181 0.6746 6.1678 -4.1739)" gradientUnits="userSpaceOnUse">
	<stop  offset="0" style="stop-color:#3771C8"/>
	<stop  offset="0.128" style="stop-color:#3771C8"/>
	<stop  offset="1" style="stop-color:#6600FF;stop-opacity:0"/>
</radialGradient>
<circle class="st1" cx="10" cy="10" r="10"/>
<path class="st2" d="M10,3.7c-1.7,0-1.9,0-2.6,0c-0.7,0-1.1,0.1-1.5,0.3C5.5,4.2,5.1,4.4,4.8,4.8C4.4,5.1,4.2,5.5,4.1,5.9
	C3.9,6.3,3.8,6.7,3.8,7.4c0,0.7,0,0.9,0,2.6s0,1.9,0,2.6c0,0.7,0.1,1.1,0.3,1.5c0.2,0.4,0.4,0.8,0.7,1.1c0.3,0.3,0.7,0.6,1.1,0.7
	c0.4,0.2,0.9,0.3,1.5,0.3c0.7,0,0.9,0,2.6,0c1.7,0,1.9,0,2.6,0c0.7,0,1.1-0.1,1.5-0.3c0.4-0.2,0.8-0.4,1.1-0.7
	c0.3-0.3,0.6-0.7,0.7-1.1c0.2-0.4,0.3-0.9,0.3-1.5c0-0.7,0-0.9,0-2.6s0-1.9,0-2.6c0-0.7-0.1-1.1-0.3-1.5c-0.2-0.4-0.4-0.8-0.7-1.1
	c-0.3-0.3-0.7-0.6-1.1-0.7c-0.4-0.2-0.9-0.3-1.5-0.3C11.9,3.7,11.7,3.7,10,3.7L10,3.7z M9.4,4.9c0.2,0,0.4,0,0.6,0
	c1.7,0,1.9,0,2.5,0c0.6,0,0.9,0.1,1.2,0.2c0.3,0.1,0.5,0.2,0.7,0.5c0.2,0.2,0.4,0.4,0.5,0.7c0.1,0.2,0.2,0.6,0.2,1.2
	c0,0.7,0,0.9,0,2.5s0,1.9,0,2.5c0,0.6-0.1,0.9-0.2,1.2c-0.1,0.3-0.3,0.5-0.5,0.7c-0.2,0.2-0.4,0.4-0.7,0.5c-0.2,0.1-0.6,0.2-1.2,0.2
	c-0.7,0-0.9,0-2.5,0c-1.7,0-1.9,0-2.5,0c-0.6,0-0.9-0.1-1.2-0.2c-0.3-0.1-0.5-0.2-0.7-0.5c-0.2-0.2-0.4-0.4-0.5-0.7
	c-0.1-0.2-0.2-0.6-0.2-1.2c0-0.7,0-0.9,0-2.5s0-1.9,0-2.5c0-0.6,0.1-0.9,0.2-1.2C5.2,6,5.4,5.8,5.6,5.6C5.8,5.4,6,5.2,6.3,5.1
	C6.5,5,6.9,4.9,7.5,4.9C8,4.9,8.3,4.9,9.4,4.9L9.4,4.9z M13.4,5.9c-0.4,0-0.8,0.3-0.8,0.8c0,0.4,0.3,0.8,0.8,0.8
	c0.4,0,0.8-0.3,0.8-0.8C14.1,6.2,13.8,5.9,13.4,5.9L13.4,5.9z M10,6.8c-1.8,0-3.2,1.4-3.2,3.2s1.4,3.2,3.2,3.2
	c1.8,0,3.2-1.4,3.2-3.2S11.8,6.8,10,6.8L10,6.8z M10,7.9c1.2,0,2.1,0.9,2.1,2.1c0,1.2-0.9,2.1-2.1,2.1c-1.2,0-2.1-0.9-2.1-2.1
	C7.9,8.8,8.8,7.9,10,7.9z"/>
</svg>
