<?xml version="1.0" encoding="utf-8"?>
<!-- Generator: Adobe Illustrator 24.1.1, SVG Export Plug-In . SVG Version: 6.00 Build 0)  -->
<svg version="1.1" id="Layer_1" xmlns="http://www.w3.org/2000/svg" xmlns:xlink="http://www.w3.org/1999/xlink" x="0px" y="0px"
	 viewBox="0 0 20 20" style="enable-background:new 0 0 20 20;" xml:space="preserve">
<style type="text/css">
	.st0{fill:#1D9BF0;}
	.st1{fill:#FFFFFF;}
</style>
<circle class="st0" cx="10" cy="10" r="10"/>
<g id="surface1">
	<path class="st1" d="M15.9,8c0,0.1,0,0.2,0,0.4c0,3.6-2.7,7.8-7.7,7.8v0c-1.5,0-2.9-0.4-4.2-1.2c0.2,0,0.4,0,0.6,0
		c1.2,0,2.4-0.4,3.4-1.2c-1.2,0-2.2-0.8-2.5-1.9c0.4,0.1,0.8,0.1,1.2,0c-1.3-0.3-2.2-1.4-2.2-2.7c0,0,0,0,0,0
		c0.4,0.2,0.8,0.3,1.2,0.3C4.6,8.6,4.2,7.1,4.9,5.8c1.4,1.7,3.4,2.7,5.6,2.9c-0.2-0.9,0.1-1.9,0.8-2.6c1.1-1,2.8-1,3.8,0.1
		c0.6-0.1,1.2-0.3,1.7-0.7c-0.2,0.6-0.6,1.2-1.2,1.5c0.5-0.1,1.1-0.2,1.6-0.4C16.9,7.1,16.4,7.6,15.9,8z"/>
</g>
</svg>
